# xmcd
#
# Track frame offsets: 
#        150
#        13671
#        27520
#        43935
#        61709
#        75637
#        88707
#        103397
#        122841
#        139638
#        158173
#
# Disc length: 2392 seconds
#
# Revision: 0
# Processed by: cddbd v1.5.2PL0 Copyright (c) Steve Scherf et al.
# Submitted via: ExactAudioCopy v0.95a5
#
DISCID=8e09560b
DTITLE=Giflof2013 - Giflof
DYEAR=2013
DGENRE=Blues
TTITLE0=Duchy i ludzie
TTITLE1=Szalom
TTITLE2=A kiedy bêdziesz moj¹ ¿on¹
TTITLE3=Irysy
TTITLE4=Gdybym powiedzia³, ¿e...
TTITLE5=Chodz do mnie
TTITLE6=Folk...
TTITLE7=SoulSideStory
TTITLE8=Chcia³abym
TTITLE9=£awka
TTITLE10=P³onê
EXTD=
EXTT0=
EXTT1=
EXTT2=
EXTT3=
EXTT4=
EXTT5=
EXTT6=
EXTT7=
EXTT8=
EXTT9=
EXTT10=
PLAYORDER=
